<svg width="25" height="20" viewBox="0 0 25 20" fill="none" xmlns="http://www.w3.org/2000/svg">
<path fill-rule="evenodd" clip-rule="evenodd" d="M17.205 2H11.2991V5.09999H14.7124V5.09456H17.205C18.223 5.09456 19.024 5.38491 19.6078 5.96562C20.1917 6.54632 20.4836 7.47851 20.4836 8.76218V11.2378C20.4836 12.5215 20.1917 13.4537 19.6078 14.0344C19.024 14.6151 18.223 14.9054 17.205 14.9054H14.7124V14.9022H11.2991V18H17.205C18.238 18 19.1812 17.8319 20.0345 17.4957C20.8878 17.1595 21.6139 16.6628 22.2128 16.0057C22.8116 15.3333 23.2757 14.5005 23.605 13.5072C23.9344 12.4986 24.0991 11.3295 24.0991 10C24.0991 8.67049 23.9344 7.50907 23.605 6.51576C23.2757 5.50716 22.8116 4.67431 22.2128 4.01719C21.6139 3.34479 20.8878 2.8405 20.0345 2.5043C19.1812 2.1681 18.238 2 17.205 2Z" fill="#C4CDD5"/>
<path d="M6.02464 19H7.02464V18V13.1318H7.92412L10.4804 18.4343L10.7531 19H11.3812H15.3H16.9264L16.1923 17.5487L13.4754 12.177C14.182 11.7511 14.7591 11.1837 15.1831 10.4695C15.7843 9.48251 16.0681 8.3513 16.0681 7.11175C16.0681 6.246 15.9366 5.43109 15.6581 4.6787C15.3835 3.93675 14.983 3.28361 14.4508 2.73502C13.9299 2.16688 13.2976 1.73571 12.5686 1.44007C11.8307 1.14082 11.0283 1 10.1754 1H2.5H1.5V2V18V19H2.5H6.02464ZM10.2802 6.16829L10.2999 6.18669L10.3205 6.204L10.3208 6.20432C10.343 6.22289 10.4275 6.29392 10.4275 6.60745V7.61605C10.4275 7.92591 10.3441 8.02053 10.3002 8.05991C10.243 8.10999 10.0982 8.19771 9.73478 8.19771H7.02464V6.02579H9.73478C10.0866 6.02579 10.223 6.11469 10.2802 6.16829Z" fill="#5C6AC4" stroke="white" stroke-width="2"/>
</svg>
